<svg width="1100" height="520" viewBox="0 0 1100 520" xmlns="http://www.w3.org/2000/svg">
  <rect width="1100" height="520" fill="#020617"/>
  <text x="40" y="50" font-family="Arial" font-size="28" fill="#e2e8f0">ProximityAuth System Overview</text>
  <rect x="40" y="90" width="280" height="180" rx="12" fill="#0f172a" stroke="#38bdf8"/>
  <text x="58" y="130" font-family="Arial" font-size="20" fill="#bae6fd">Mobile App</text>
  <text x="58" y="160" font-family="Arial" font-size="14" fill="#cbd5e1">Expo + React Native</text>
  <text x="58" y="184" font-family="Arial" font-size="14" fill="#cbd5e1">Haptics + Ultrasonic Proof</text>
  <text x="58" y="208" font-family="Arial" font-size="14" fill="#cbd5e1">mDNS Discovery</text>

  <rect x="410" y="90" width="280" height="180" rx="12" fill="#0f172a" stroke="#22c55e"/>
  <text x="430" y="130" font-family="Arial" font-size="20" fill="#bbf7d0">Desktop Daemon</text>
  <text x="430" y="160" font-family="Arial" font-size="14" fill="#cbd5e1">Node.js + Express WS</text>
  <text x="430" y="184" font-family="Arial" font-size="14" fill="#cbd5e1">JWT + Fallback Verification</text>
  <text x="430" y="208" font-family="Arial" font-size="14" fill="#cbd5e1">Mic Signal Analysis</text>

  <rect x="780" y="90" width="280" height="180" rx="12" fill="#0f172a" stroke="#a78bfa"/>
  <text x="805" y="130" font-family="Arial" font-size="20" fill="#ddd6fe">Web Portal</text>
  <text x="805" y="160" font-family="Arial" font-size="14" fill="#cbd5e1">Next.js Dashboard</text>
  <text x="805" y="184" font-family="Arial" font-size="14" fill="#cbd5e1">Account + Device Trust</text>
  <text x="805" y="208" font-family="Arial" font-size="14" fill="#cbd5e1">Install QR + Distribution</text>

  <line x1="320" y1="180" x2="410" y2="180" stroke="#38bdf8" stroke-width="3"/>
  <polygon points="405,173 420,180 405,187" fill="#38bdf8"/>
  <line x1="690" y1="180" x2="780" y2="180" stroke="#22c55e" stroke-width="3"/>
  <polygon points="775,173 790,180 775,187" fill="#22c55e"/>

  <rect x="160" y="330" width="780" height="130" rx="12" fill="#111827" stroke="#f59e0b"/>
  <text x="190" y="365" font-family="Arial" font-size="22" fill="#fde68a">Fallback: Tap-to-Screen Physical Authentication</text>
  <text x="190" y="392" font-family="Arial" font-size="14" fill="#e5e7eb">1) Phone touches monitor  2) compressed haptics + 18-20kHz mixed signal emitted</text>
  <text x="190" y="415" font-family="Arial" font-size="14" fill="#e5e7eb">3) Desktop microphone captures impulse + spectrum  4) challenge accepted only when all scores pass</text>
</svg>
